<svg xmlns="http://www.w3.org/2000/svg" xmlns:xlink="http://www.w3.org/1999/xlink" viewBox="0,0,256,256" width="128px" height="128px" fill-rule="nonzero"><g transform="translate(8.96,8.96) scale(0.93,0.93)"><g fill="#ffffff" fill-rule="nonzero" stroke="none" stroke-width="1" stroke-linecap="butt" stroke-linejoin="miter" stroke-miterlimit="10" stroke-dasharray="" stroke-dashoffset="0" font-family="none" font-weight="none" font-size="none" text-anchor="none" style="mix-blend-mode: normal"><g transform="scale(2,2)"><path d="M114,1h-90c-7.2,0 -13,5.8 -13,13v27.6c0,18.6 -2.3,37.2 -6.8,55.3l-0.6,2.5c-0.8,3.3 -0.1,6.7 2,9.4c2.1,2.7 5.3,4.2 8.7,4.2h76.4c6.9,0 12.9,-4.7 14.6,-11.4l0.8,-3.3c4.6,-18.5 7,-37.6 7,-56.7v-34.6h1c3.9,0 7,3.1 7,7v100c0,3.9 -3.1,7 -7,7h-90.1c-1.7,0 -3,1.3 -3,3c0,1.7 1.3,3 3,3h90c7.2,0 13,-5.8 13,-13v-100c0,-7.2 -5.8,-13 -13,-13zM78.3,69.2c-0.7,1.5 -2.5,2.1 -4,1.4c-0.5,-0.2 -0.9,-0.4 -1.2,-0.4c-1.1,-0.1 -2.6,1.3 -4.1,2.8c-2,1.9 -4.2,4.1 -7.4,4.4c-0.3,0 -0.6,0 -0.8,0c-4.4,0 -7.4,-3.8 -10.1,-7.1c-1.3,-1.7 -3.3,-4.1 -4.5,-4.4c-0.8,0.7 -2.2,2.7 -3.4,4.4c-0.9,1.2 -1.9,2.6 -3,4c-1,1.3 -2.9,1.5 -4.2,0.5c-1.3,-1 -1.5,-2.9 -0.5,-4.2c1,-1.3 2,-2.7 2.9,-3.9c3.1,-4.2 4.7,-6.5 7.2,-6.8c4.5,-0.6 7.5,3.2 10.2,6.6c1.8,2.2 4.1,5 5.6,4.9c1.1,-0.1 2.5,-1.5 3.9,-2.8c2.2,-2.1 5,-4.8 8.9,-4.4c1.1,0.1 2.2,0.4 3.3,1c1.4,0.7 2,2.5 1.2,4zM86,77c-1.7,0 -3,-1.3 -3,-3c0,-1.7 1.3,-3 3,-3c1.7,0 3,1.3 3,3c0,1.7 -1.3,3 -3,3z"></path></g></g></g></svg>